<?xml version="1.0" encoding="utf-8"?>
<!-- Generator: Adobe Illustrator 19.0.0, SVG Export Plug-In . SVG Version: 6.00 Build 0)  -->
<svg version="1.1" id="Layer_1" xmlns="http://www.w3.org/2000/svg" xmlns:xlink="http://www.w3.org/1999/xlink" x="0px" y="0px"
	 viewBox="-269 280.1 64.1 282.8" style="enable-background:new -269 280.1 64.1 282.8;" xml:space="preserve">
<style type="text/css">
	.st0{fill:#3B3B3B;}
	.st1{fill:none;}
</style>
<g>
	<g>
		<g>
			<path class="st0" d="M-238.6,499.5c8,0,14.5-6.6,14.5-14.5c0-2.8-0.8-5.6-2.3-7.9c-1.3-2.1-3.2-3.8-5.5-5c0-0.1,0-11.5,0-11.5
				c0-0.2-0.1-0.4-0.2-0.6c-0.1-0.1-2.3-2.8-6.3-2.8c-3.9,0-6.7,2.6-6.8,2.7c-0.2,0.2-0.3,0.4-0.3,0.7c0,0,0,11.5,0,11.6
				c-2.1,1.2-3.9,2.9-5.2,4.9c-1.4,2.3-2.2,5-2.2,7.8C-253.1,492.9-246.7,499.5-238.6,499.5z M-243.8,462.3l9.9,1.8v2.1l-9.9-1.8
				V462.3z M-243.8,466.2l9.9,1.8v1.2v0.6l-9.9-1.7V466.2z M-238.8,484.2c-0.1,0.1-0.2,0.1-0.3,0.2c-0.1-0.1-0.2-0.1-0.3-0.2
				c-0.4-0.2-1-0.4-1.6-0.4c0.4-3.1,0.7-8.5,0.7-11.3c0-0.9,0-1.6,0-1.9l2.2,0.3c0,0.3,0,0.9,0,1.4c0.1,3,0.2,8.3,0.7,11.3
				C-237.9,483.9-238.3,484-238.8,484.2z M-238.3,486.9c0,0.2-0.4,0.7-0.8,0.7s-0.8-0.4-0.8-0.7c0-0.2,0.2-0.6,0.8-0.9
				C-238.5,486.3-238.3,486.8-238.3,486.9z M-244.2,473.5l0.6-0.2V470l2.7,0.4c0,0.4,0,1.1,0,2c-0.1,3.2-0.3,8.7-0.8,11.3
				c-0.7,0-1.2,0.2-1.7,0.7c-0.6,0.4-0.9,1.1-1,2c-0.1,0.8,0.1,1.4,0.6,1.9c0.4,0.4,1.2,0.4,2-0.9c0.3-0.6,0.6-1.3,0.8-2.4
				c0.3,0,0.7,0.1,1,0.2c-0.6,0.7-0.6,1.3-0.6,1.7c0,1,0.8,2,1.6,2c0.8,0,1.6-1,1.6-2c0-0.3,0-1-0.6-1.7c0.3-0.1,0.7-0.2,1-0.2
				c0.2,1,0.4,1.9,0.8,2.4c0.8,1.3,1.6,1.3,2,0.9c0.4-0.4,0.7-1.2,0.6-1.9c-0.1-0.9-0.4-1.6-1-2c-0.4-0.4-1.1-0.7-1.7-0.7
				c-0.4-2.7-0.7-8.1-0.8-11.3c0-0.4,0-0.9,0-1.3l3.3,0.6v1.6l0.6,0.2c4.4,2.1,7.3,6.6,7.3,11.5c0,7-5.7,12.7-12.7,12.7
				c-7,0-12.7-5.7-12.7-12.7C-251.3,480-248.5,475.7-244.2,473.5z M-242.1,485.1c-0.1,0.7-0.3,1.1-0.4,1.4c-0.4,0.8-0.8,0.8-1,0.6
				c-0.1-0.1-0.1-0.2-0.1-0.3c0.1-0.4,0.2-0.9,0.6-1.2C-242.9,485.4-242.5,485.2-242.1,485.1z M-236.2,485.1c0.3,0.1,0.8,0.2,1,0.4
				c0.3,0.3,0.6,0.7,0.6,1.2c0,0.1,0,0.2-0.1,0.3c-0.2,0.2-0.6,0.1-1-0.6C-235.9,486.2-236,485.8-236.2,485.1z"/>
			<path class="st0" d="M-221.8,487.2c0,0.6,0.6,1.1,1.1,1.1h6.1c0.7,0,1.1-0.4,1.1-1.1c0-0.6-0.6-1.1-1.1-1.1h-6.1
				C-221.3,486.1-221.8,486.7-221.8,487.2z"/>
			<path class="st0" d="M-240.1,501.6c-0.7,0-1.1,0.4-1.1,1.1v5.9c0,0.6,0.6,1.1,1.1,1.1c0.7,0,1.1-0.4,1.1-1.1v-5.9
				C-239,502-239.4,501.6-240.1,501.6z"/>
			<path class="st0" d="M-263.1,487.3h6.1c0.7,0,1.1-0.4,1.1-1.1s-0.6-1.1-1.1-1.1h-6.1c-0.7,0-1.1,0.4-1.1,1.1
				S-263.7,487.3-263.1,487.3z"/>
			<path class="st0" d="M-258.8,470.6l4.9,3.6c0.4,0.3,1.2,0.2,1.6-0.2c0.3-0.4,0.2-1.2-0.2-1.6l-4.9-3.6c-0.2-0.1-0.4-0.2-0.7-0.2
				c-0.3,0-0.7,0.1-0.9,0.4C-259.4,469.5-259.3,470.2-258.8,470.6z"/>
			<path class="st0" d="M-223.5,474.2l4.9-3.6c0.4-0.3,0.6-1,0.2-1.6c-0.2-0.3-0.6-0.4-0.9-0.4c-0.2,0-0.4,0.1-0.7,0.2l-4.9,3.6
				c-0.4,0.3-0.6,1-0.2,1.6C-224.7,474.4-224.1,474.5-223.5,474.2z"/>
			<path class="st0" d="M-252.4,498.1c-0.3,0-0.6,0.1-0.8,0.3l-4.3,4.2c-0.4,0.4-0.4,1.1,0,1.6s1.1,0.4,1.6,0l4.3-4.2
				c0.4-0.4,0.4-1.1,0-1.6C-251.9,498.2-252.2,498.1-252.4,498.1z"/>
			<path class="st0" d="M-225,498.5c-0.2-0.2-0.6-0.3-0.8-0.3c-0.3,0-0.6,0.1-0.8,0.3c-0.4,0.4-0.4,1.1,0,1.6l4.3,4.2
				c0.4,0.4,1.1,0.4,1.6,0c0.4-0.4,0.4-1.1,0-1.6L-225,498.5z"/>
		</g>
	</g>
	<rect x="-238.9" y="280.1" class="st0" width="1.6" height="180"/>
	<g>
		<path class="st0" d="M-214.5,554.4c-2.2,0.4-23,2.4-25.9,2.7c-3.4,0.3-4.2,0.1-7.7-3c-2.3-2.1-5.6-5.2-7.8-7.8
			c-1.9-2.3-3.7-3.2-6.1-2.9l-4,0.4l0.2-17.9c0,0,6.7,0,10.6,0.2c6.3,0.4,7.6,2.2,9.7,5.5c0.9,1.3,3.7,6.3,3.7,6.3s1.4,3.6,6.8,6.1
			c3.2,1.6,5.1,2.8,4.2,4.8c-1,2.2-5.1,0.4-5.2,0.4l-7.7-3.6c-3.4-1.6-7.2-5.8-7.2-5.8s2,6.2,6.1,8.1l7.7,3.6c2.2,1,6.9,1.9,8.6-1.8
			c2.2-4.7-2.1-6.7-7.5-9.2c-0.4-0.2-0.8-0.4-1.1-0.7c0.2,0,0.6,0,0.9,0c1.2-0.1,2.9-0.2,4.8-0.4c5-0.6,7.1,0,7.8,3.4
			c2-0.8,3.9-0.3,5.2,0.3c1.7,0.8,2.6,2.4,1.3,4c5.3-0.6,6.9,1.4,7.3,3C-209.4,552.5-210.9,553.9-214.5,554.4L-214.5,554.4z"/>
	</g>
</g>
<line class="st1" x1="15.9" y1="658.4" x2="15.3" y2="659.1"/>
</svg>
