<?xml version="1.0" encoding="utf-8"?>
<!-- Generator: Adobe Illustrator 19.0.0, SVG Export Plug-In . SVG Version: 6.00 Build 0)  -->
<svg version="1.1" id="Layer_1" xmlns="http://www.w3.org/2000/svg" xmlns:xlink="http://www.w3.org/1999/xlink" x="0px" y="0px"
	 viewBox="-205 262.7 431 70.6" style="enable-background:new -205 262.7 431 70.6;" xml:space="preserve">
<style type="text/css">
	.st0{fill:none;}
	.st1{fill:none;stroke:#231F20;stroke-width:0.3;stroke-linejoin:round;}
	.st2{display:none;fill:#FFFFFF;}
	.st3{display:none;opacity:0.5;fill:url(#XMLID_5_);enable-background:new    ;}
	.st4{fill:#FFF200;}
	.st5{font-family:'CarbonBl-Regular';}
	.st6{font-size:70px;}
</style>
<pattern  x="-205" y="333.3" width="72" height="72" patternUnits="userSpaceOnUse" id="XMLID_6_" viewBox="79.6 -148.6 72 72" style="overflow:visible;">
	<g>
		<polygon class="st0" points="79.6,-76.6 151.6,-76.6 151.6,-148.6 79.6,-148.6 		"/>
		<g>
			<polygon class="st0" points="79.6,-148.6 151.6,-148.6 151.6,-76.6 79.6,-76.6 			"/>
			<g>
				<polygon class="st0" points="79.6,-148.6 151.6,-148.6 151.6,-76.6 79.6,-76.6 				"/>
				<g>
					<line class="st1" x1="144.1" y1="-66.1" x2="162.1" y2="-84.1"/>
					<line class="st1" x1="144.1" y1="-60.1" x2="168.1" y2="-84.1"/>
					<line class="st1" x1="144.1" y1="-54.1" x2="174.1" y2="-84.1"/>
					<line class="st1" x1="144.1" y1="-48.1" x2="180.1" y2="-84.1"/>
					<line class="st1" x1="144.1" y1="-42.1" x2="186.1" y2="-84.1"/>
					<line class="st1" x1="144.1" y1="-36.1" x2="192.1" y2="-84.1"/>
					<line class="st1" x1="144.1" y1="-30.1" x2="198.1" y2="-84.1"/>
					<line class="st1" x1="144.1" y1="-24.1" x2="204.1" y2="-84.1"/>
					<line class="st1" x1="144.1" y1="-18.1" x2="210.1" y2="-84.1"/>
					<line class="st1" x1="144.1" y1="-12.1" x2="216.1" y2="-84.1"/>
					<line class="st1" x1="144.1" y1="-6.1" x2="222.1" y2="-84.1"/>
					<line class="st1" x1="144.1" y1="-0.1" x2="228.1" y2="-84.1"/>
					<line class="st1" x1="150.1" y1="-0.1" x2="228.1" y2="-78.1"/>
				</g>
				<g>
					<line class="st1" x1="72.1" y1="-66.1" x2="90.1" y2="-84.1"/>
					<line class="st1" x1="72.1" y1="-60.1" x2="96.1" y2="-84.1"/>
					<line class="st1" x1="72.1" y1="-54.1" x2="102.1" y2="-84.1"/>
					<line class="st1" x1="72.1" y1="-48.1" x2="108.1" y2="-84.1"/>
					<line class="st1" x1="72.1" y1="-42.1" x2="114.1" y2="-84.1"/>
					<line class="st1" x1="72.1" y1="-36.1" x2="120.1" y2="-84.1"/>
					<line class="st1" x1="72.1" y1="-30.1" x2="126.1" y2="-84.1"/>
					<line class="st1" x1="72.1" y1="-24.1" x2="132.1" y2="-84.1"/>
					<line class="st1" x1="72.1" y1="-18.1" x2="138.1" y2="-84.1"/>
					<line class="st1" x1="72.1" y1="-12.1" x2="144.1" y2="-84.1"/>
					<line class="st1" x1="72.1" y1="-6.1" x2="150.1" y2="-84.1"/>
					<line class="st1" x1="72.1" y1="-0.1" x2="156.1" y2="-84.1"/>
					<line class="st1" x1="78.1" y1="-0.1" x2="156.1" y2="-78.1"/>
				</g>
				<g>
					<line class="st1" x1="0.1" y1="-0.1" x2="84.1" y2="-84.1"/>
					<line class="st1" x1="6.1" y1="-0.1" x2="84.1" y2="-78.1"/>
				</g>
				<g>
					<line class="st1" x1="144.1" y1="-138.1" x2="162.1" y2="-156.1"/>
					<line class="st1" x1="144.1" y1="-132.1" x2="168.1" y2="-156.1"/>
					<line class="st1" x1="144.1" y1="-126.1" x2="174.1" y2="-156.1"/>
					<line class="st1" x1="144.1" y1="-120.1" x2="180.1" y2="-156.1"/>
					<line class="st1" x1="144.1" y1="-114.1" x2="186.1" y2="-156.1"/>
					<line class="st1" x1="144.1" y1="-108.1" x2="192.1" y2="-156.1"/>
					<line class="st1" x1="144.1" y1="-102.1" x2="198.1" y2="-156.1"/>
					<line class="st1" x1="144.1" y1="-96.1" x2="204.1" y2="-156.1"/>
					<line class="st1" x1="144.1" y1="-90.1" x2="210.1" y2="-156.1"/>
					<line class="st1" x1="144.1" y1="-84.1" x2="216.1" y2="-156.1"/>
					<line class="st1" x1="144.1" y1="-78.1" x2="222.1" y2="-156.1"/>
					<line class="st1" x1="144.1" y1="-72.1" x2="228.1" y2="-156.1"/>
					<line class="st1" x1="150.1" y1="-72.1" x2="228.1" y2="-150.1"/>
				</g>
				<g>
					<line class="st1" x1="72.1" y1="-138.1" x2="90.1" y2="-156.1"/>
					<line class="st1" x1="72.1" y1="-132.1" x2="96.1" y2="-156.1"/>
					<line class="st1" x1="72.1" y1="-126.1" x2="102.1" y2="-156.1"/>
					<line class="st1" x1="72.1" y1="-120.1" x2="108.1" y2="-156.1"/>
					<line class="st1" x1="72.1" y1="-114.1" x2="114.1" y2="-156.1"/>
					<line class="st1" x1="72.1" y1="-108.1" x2="120.1" y2="-156.1"/>
					<line class="st1" x1="72.1" y1="-102.1" x2="126.1" y2="-156.1"/>
					<line class="st1" x1="72.1" y1="-96.1" x2="132.1" y2="-156.1"/>
					<line class="st1" x1="72.1" y1="-90.1" x2="138.1" y2="-156.1"/>
					<line class="st1" x1="72.1" y1="-84.1" x2="144.1" y2="-156.1"/>
					<line class="st1" x1="72.1" y1="-78.1" x2="150.1" y2="-156.1"/>
					<line class="st1" x1="72.1" y1="-72.1" x2="156.1" y2="-156.1"/>
					<line class="st1" x1="78.1" y1="-72.1" x2="156.1" y2="-150.1"/>
					<line class="st1" x1="84.1" y1="-72.1" x2="156.1" y2="-144.1"/>
					<line class="st1" x1="90.1" y1="-72.1" x2="156.1" y2="-138.1"/>
					<line class="st1" x1="96.1" y1="-72.1" x2="156.1" y2="-132.1"/>
					<line class="st1" x1="102.1" y1="-72.1" x2="156.1" y2="-126.1"/>
					<line class="st1" x1="108.1" y1="-72.1" x2="156.1" y2="-120.1"/>
					<line class="st1" x1="114.1" y1="-72.1" x2="156.1" y2="-114.1"/>
					<line class="st1" x1="120.1" y1="-72.1" x2="156.1" y2="-108.1"/>
					<line class="st1" x1="126.1" y1="-72.1" x2="156.1" y2="-102.1"/>
					<line class="st1" x1="132.1" y1="-72.1" x2="156.1" y2="-96.1"/>
					<line class="st1" x1="138.1" y1="-72.1" x2="156.1" y2="-90.1"/>
					<line class="st1" x1="144.1" y1="-72.1" x2="156.1" y2="-84.1"/>
				</g>
				<g>
					<line class="st1" x1="0.1" y1="-72.1" x2="84.1" y2="-156.1"/>
					<line class="st1" x1="6.1" y1="-72.1" x2="84.1" y2="-150.1"/>
					<line class="st1" x1="12.1" y1="-72.1" x2="84.1" y2="-144.1"/>
					<line class="st1" x1="18.1" y1="-72.1" x2="84.1" y2="-138.1"/>
					<line class="st1" x1="24.1" y1="-72.1" x2="84.1" y2="-132.1"/>
					<line class="st1" x1="30.1" y1="-72.1" x2="84.1" y2="-126.1"/>
					<line class="st1" x1="36.1" y1="-72.1" x2="84.1" y2="-120.1"/>
					<line class="st1" x1="42.1" y1="-72.1" x2="84.1" y2="-114.1"/>
					<line class="st1" x1="48.1" y1="-72.1" x2="84.1" y2="-108.1"/>
					<line class="st1" x1="54.1" y1="-72.1" x2="84.1" y2="-102.1"/>
					<line class="st1" x1="60.1" y1="-72.1" x2="84.1" y2="-96.1"/>
					<line class="st1" x1="66.1" y1="-72.1" x2="84.1" y2="-90.1"/>
					<line class="st1" x1="72.1" y1="-72.1" x2="84.1" y2="-84.1"/>
				</g>
				<g>
					<line class="st1" x1="144.1" y1="-144.1" x2="228.1" y2="-228.1"/>
					<line class="st1" x1="150.1" y1="-144.1" x2="228.1" y2="-222.1"/>
				</g>
				<g>
					<line class="st1" x1="72.1" y1="-144.1" x2="156.1" y2="-228.1"/>
					<line class="st1" x1="78.1" y1="-144.1" x2="156.1" y2="-222.1"/>
					<line class="st1" x1="84.1" y1="-144.1" x2="156.1" y2="-216.1"/>
					<line class="st1" x1="90.1" y1="-144.1" x2="156.1" y2="-210.1"/>
					<line class="st1" x1="96.1" y1="-144.1" x2="156.1" y2="-204.1"/>
					<line class="st1" x1="102.1" y1="-144.1" x2="156.1" y2="-198.1"/>
					<line class="st1" x1="108.1" y1="-144.1" x2="156.1" y2="-192.1"/>
					<line class="st1" x1="114.1" y1="-144.1" x2="156.1" y2="-186.1"/>
					<line class="st1" x1="120.1" y1="-144.1" x2="156.1" y2="-180.1"/>
					<line class="st1" x1="126.1" y1="-144.1" x2="156.1" y2="-174.1"/>
					<line class="st1" x1="132.1" y1="-144.1" x2="156.1" y2="-168.1"/>
					<line class="st1" x1="138.1" y1="-144.1" x2="156.1" y2="-162.1"/>
					<line class="st1" x1="144.1" y1="-144.1" x2="156.1" y2="-156.1"/>
				</g>
				<g>
					<line class="st1" x1="0.1" y1="-144.1" x2="84.1" y2="-228.1"/>
					<line class="st1" x1="6.1" y1="-144.1" x2="84.1" y2="-222.1"/>
					<line class="st1" x1="12.1" y1="-144.1" x2="84.1" y2="-216.1"/>
					<line class="st1" x1="18.1" y1="-144.1" x2="84.1" y2="-210.1"/>
					<line class="st1" x1="24.1" y1="-144.1" x2="84.1" y2="-204.1"/>
					<line class="st1" x1="30.1" y1="-144.1" x2="84.1" y2="-198.1"/>
					<line class="st1" x1="36.1" y1="-144.1" x2="84.1" y2="-192.1"/>
					<line class="st1" x1="42.1" y1="-144.1" x2="84.1" y2="-186.1"/>
					<line class="st1" x1="48.1" y1="-144.1" x2="84.1" y2="-180.1"/>
					<line class="st1" x1="54.1" y1="-144.1" x2="84.1" y2="-174.1"/>
					<line class="st1" x1="60.1" y1="-144.1" x2="84.1" y2="-168.1"/>
					<line class="st1" x1="66.1" y1="-144.1" x2="84.1" y2="-162.1"/>
					<line class="st1" x1="72.1" y1="-144.1" x2="84.1" y2="-156.1"/>
				</g>
			</g>
		</g>
	</g>
</pattern>
<rect id="XMLID_1_" x="-250" y="624.4" class="st2" width="300" height="80"/>
<pattern  id="XMLID_5_" xlink:href="#XMLID_6_" patternTransform="matrix(1 0 0 1 -133.2 16047.5234)">
</pattern>
<rect id="XMLID_3_" x="-250" y="624.4" class="st3" width="300" height="80"/>
<text id="XMLID_2_" transform="matrix(1 0 0 1 -196.6902 320.4022)" class="st4 st5 st6">Explore  More </text>
</svg>
